<?xml version="1.0" standalone="no"?>
<!DOCTYPE svg PUBLIC "-//W3C//DTD SVG 20010904//EN"
 "http://www.w3.org/TR/2001/REC-SVG-20010904/DTD/svg10.dtd">
<svg version="1.0" xmlns="http://www.w3.org/2000/svg"
 width="173.000000pt" height="173.000000pt" viewBox="0 0 173.000000 173.000000"
 preserveAspectRatio="xMidYMid meet">
<metadata>
Created by potrace 1.14, written by Peter Selinger 2001-2017
</metadata>
<g transform="translate(0.000000,173.000000) scale(0.100000,-0.100000)"
fill="#000000" stroke="none">
<path d="M856 1649 c-16 -5 -33 -6 -38 -3 -4 3 -8 0 -8 -6 0 -7 -6 -10 -12 -7
-16 5 -132 -57 -183 -98 -58 -46 -162 -155 -149 -155 4 0 -2 -9 -14 -20 -12
-12 -22 -25 -22 -30 0 -5 -6 -15 -14 -23 -16 -15 -85 -149 -97 -187 -4 -14
-16 -49 -27 -78 -11 -29 -21 -54 -21 -55 0 -1 -2 -9 -5 -17 -4 -13 -12 -50
-16 -72 -1 -4 -8 -28 -15 -53 -8 -26 -10 -45 -5 -45 6 0 10 3 11 8 0 4 2 14 4
22 2 8 6 24 9 35 2 11 9 32 15 48 6 15 9 27 6 27 -2 0 3 19 11 43 9 23 17 49
19 57 2 8 9 29 16 45 7 17 13 32 13 35 5 23 71 141 117 210 109 165 257 275
411 306 62 13 162 10 190 -6 22 -12 81 -88 84 -109 0 -3 4 -14 7 -23 24 -63
31 -115 31 -218 -1 -99 -8 -167 -22 -230 -6 -25 -13 -56 -16 -70 -8 -44 -58
-194 -68 -207 -6 -7 -8 -13 -5 -13 6 0 -63 -151 -72 -160 -4 -3 -13 -18 -21
-35 -53 -107 -199 -287 -289 -359 -47 -36 -123 -76 -164 -85 -75 -17 -107 -21
-107 -12 0 5 27 11 60 15 33 4 60 12 60 17 0 6 4 8 9 5 5 -3 20 3 32 14 30 24
22 25 -33 2 -164 -69 -301 35 -333 252 -3 21 -8 42 -11 47 -3 5 1 9 8 9 8 0 9
3 3 8 -9 6 -12 34 -6 60 1 4 10 -8 19 -27 21 -42 47 -56 32 -17 -5 14 -7 51
-5 83 6 83 12 101 52 177 33 62 61 95 93 109 25 11 25 11 3 14 -67 12 -169
-142 -179 -267 -1 -14 -2 -33 -3 -42 0 -10 -5 -18 -10 -18 -6 0 -9 9 -8 20 1
11 4 20 8 20 8 0 6 26 -3 35 -10 11 -16 -46 -13 -139 3 -95 6 -121 18 -132 4
-4 7 -16 7 -26 0 -50 104 -203 143 -211 7 -1 15 -6 19 -11 15 -22 148 -22 216
-1 18 6 72 -6 72 -16 0 -4 -9 -7 -20 -6 -11 1 -20 5 -20 9 0 4 -8 8 -17 8 -17
-1 -16 -2 1 -15 10 -8 22 -12 27 -10 4 3 10 2 13 -3 11 -19 138 8 214 44 162
78 344 306 442 554 12 30 26 66 31 79 17 41 18 35 34 -199 12 -164 16 -179 57
-201 15 -8 23 -7 33 8 12 16 11 20 -11 31 -13 7 -24 16 -24 20 -1 4 -3 33 -6
65 l-6 58 39 -5 c21 -2 57 -8 79 -11 39 -7 42 -6 46 20 9 43 -2 187 -16 225
-3 8 -7 33 -10 55 -2 22 -10 54 -17 70 -7 17 -13 36 -15 43 -7 34 -57 65 -116
71 -4 1 -6 45 -5 99 5 189 -47 349 -133 409 -21 15 -21 14 -8 -6 7 -11 15 -21
19 -21 15 0 69 -133 81 -200 14 -76 16 -238 4 -259 -5 -8 -17 -6 -43 4 -51 22
-72 19 -101 -15 -33 -37 -45 -38 -31 -4 5 15 7 29 5 31 -3 3 0 17 5 32 9 21
13 85 18 254 1 9 9 17 19 17 15 0 14 3 -4 18 -13 10 -26 40 -34 77 -20 96 -71
175 -137 212 -23 13 -152 14 -197 2z m434 -639 c0 -5 -4 -10 -10 -10 -5 0 -10
5 -10 10 0 6 5 10 10 10 6 0 10 -4 10 -10z m0 -45 c36 -19 37 -34 5 -85 l-25
-39 -47 20 c-26 11 -49 22 -51 24 -8 8 62 95 75 95 8 0 27 -7 43 -15z m179
-21 c26 -33 28 -67 4 -61 -10 3 -31 8 -48 12 -50 11 -59 24 -34 52 29 30 53
29 78 -3z m-29 -79 c55 -8 66 -17 74 -58 3 -18 8 -42 10 -54 5 -22 -4 -29 -29
-23 -5 1 -28 4 -50 7 -51 6 -55 10 -59 64 -2 24 -5 49 -6 54 -4 17 0 26 8 21
4 -2 28 -7 52 -11z m-126 -57 c-28 -96 -105 -266 -158 -351 -100 -159 -217
-272 -348 -336 -63 -30 -138 -47 -138 -31 0 5 8 9 18 9 29 -1 52 7 65 20 9 10
9 11 -3 7 -32 -11 -68 -14 -101 -7 l-34 7 30 19 c59 39 173 135 201 171 54 67
63 75 81 74 31 -4 36 0 23 15 -10 12 -9 15 6 15 11 0 26 -5 34 -10 13 -8 13
-10 -1 -10 -9 0 -19 -6 -22 -13 -6 -17 32 -20 52 -4 19 15 113 143 134 182
l17 30 -6 -30 c-4 -16 -11 -39 -17 -50 -9 -18 -9 -19 6 -6 10 7 17 22 17 32 0
11 5 19 11 19 7 0 9 10 7 25 -3 13 -1 22 3 19 7 -4 12 6 8 19 -2 10 118 237
126 237 2 0 -3 -24 -11 -52z m-117 30 c15 -6 31 -12 35 -12 16 -2 18 -15 7
-40 -12 -26 -29 -35 -29 -16 0 6 -4 10 -9 10 -4 0 -7 -15 -4 -34 4 -43 -6 -50
-50 -31 -19 8 -37 11 -41 8 -14 -14 -5 29 17 76 23 54 30 58 74 39z m313 -140
c0 3 5 1 11 -5 6 -6 13 -32 15 -58 3 -26 5 -50 6 -54 2 -20 -3 -42 -9 -38 -5
3 -33 8 -62 11 -30 3 -58 11 -62 17 -3 6 -7 41 -8 79 l-2 68 56 -13 c30 -7 55
-10 55 -7z m-379 -10 c22 -6 39 -15 39 -20 0 -5 -12 -30 -28 -57 -24 -43 -30
-48 -57 -44 -17 2 -36 5 -42 5 -7 1 -13 5 -13 9 0 11 53 119 58 119 3 0 22 -5
43 -12z m-72 -144 c38 -8 38 -15 4 -62 -37 -49 -44 -53 -73 -46 -40 9 -41 16
-10 67 32 50 32 50 79 41z"/>
<path d="M1190 800 c0 -5 5 -10 11 -10 5 0 7 5 4 10 -3 6 -8 10 -11 10 -2 0
-4 -4 -4 -10z"/>
<path d="M765 1582 c-77 -47 -143 -161 -152 -262 -7 -72 1 -106 27 -120 20
-11 20 -10 5 26 -8 20 -13 48 -10 63 3 14 7 40 10 56 15 82 129 235 174 235
12 0 21 5 21 10 0 16 -43 11 -75 -8z"/>
<path d="M889 1508 c-5 -9 -5 -48 -1 -43 6 6 11 45 5 45 -2 0 -4 -1 -4 -2z"/>
<path d="M984 1459 c-51 -14 -123 -94 -163 -179 -30 -64 -35 -86 -35 -145 0
-103 38 -149 108 -131 43 11 126 84 126 111 0 13 14 47 30 75 17 28 30 55 30
60 0 14 17 12 24 -2 3 -7 3 -2 0 11 -4 16 -3 21 5 17 6 -4 11 -4 12 1 6 68 6
83 -1 83 -5 0 -7 -7 -6 -16 1 -9 -14 -32 -35 -52 -20 -21 -47 -56 -59 -80 -20
-37 -26 -43 -47 -37 -32 8 -123 64 -123 76 0 43 89 153 148 183 53 27 69 20
67 -26 -1 -16 2 -28 6 -28 13 0 2 72 -13 81 -16 11 -33 10 -74 -2z m-128 -366
c1 -29 -2 -55 -7 -59 -9 -5 -24 46 -22 74 0 6 1 27 2 45 1 29 3 30 13 12 7
-11 13 -44 14 -72z"/>
<path d="M870 1439 c0 -5 5 -7 10 -4 6 3 10 8 10 11 0 2 -4 4 -10 4 -5 0 -10
-5 -10 -11z"/>
<path d="M1110 1380 c0 -5 5 -10 11 -10 5 0 7 5 4 10 -3 6 -8 10 -11 10 -2 0
-4 -4 -4 -10z"/>
<path d="M1053 1332 c-1 -28 1 -32 7 -17 11 26 12 55 3 55 -5 0 -9 -17 -10
-38z"/>
<path d="M505 1304 c-50 -26 -85 -66 -121 -139 -45 -91 -56 -214 -20 -228 8
-3 12 16 12 67 0 58 5 83 30 136 33 71 84 135 114 145 18 6 37 35 22 35 -4 0
-20 -7 -37 -16z"/>
<path d="M1296 1235 c1 -49 -2 -85 -8 -85 -5 0 -6 -5 -3 -10 4 -6 1 -17 -5
-25 -7 -9 -8 -15 -2 -15 28 0 50 186 25 211 -6 6 -8 -24 -7 -76z"/>
<path d="M1091 1214 c0 -11 3 -14 6 -6 3 7 2 16 -1 19 -3 4 -6 -2 -5 -13z"/>
<path d="M647 1127 c-23 -16 -35 -87 -16 -87 33 1 74 56 63 84 -7 19 -24 20
-47 3z"/>
<path d="M708 1067 c-14 -12 -28 -30 -32 -41 -5 -14 -9 -16 -20 -6 -11 8 -20
8 -34 1 -16 -9 -23 -6 -35 12 -14 21 -15 21 -35 4 -31 -28 -35 -92 -6 -87 5 0
10 -8 12 -18 2 -12 -8 -24 -33 -37 -19 -11 -35 -26 -36 -35 0 -8 -2 -23 -4
-33 -6 -34 27 -32 56 2 16 20 29 28 33 22 5 -8 16 -6 36 4 28 14 29 14 25 -7
-4 -20 9 -37 27 -38 4 0 16 10 28 22 26 28 28 88 2 88 -10 0 -23 -5 -29 -11
-8 -8 -7 1 1 26 9 26 23 42 43 50 36 15 43 24 48 64 4 38 -15 45 -47 18z"/>
<path d="M830 937 c-69 -38 -119 -98 -153 -185 -29 -74 -35 -128 -23 -210 7
-49 35 -92 58 -92 13 0 9 17 -7 30 -19 16 -20 50 -1 50 8 0 20 -19 28 -42 18
-58 42 -64 34 -9 -5 38 -4 41 19 41 13 0 31 -7 40 -16 14 -15 18 -15 40 0 13
8 26 24 30 35 3 10 17 26 30 35 16 11 22 22 18 33 -4 10 -2 14 4 10 6 -4 13 0
16 8 4 10 1 12 -11 8 -11 -4 -10 0 5 11 24 18 37 71 37 160 1 38 -3 60 -11 63
-7 3 -11 9 -8 13 8 13 -52 64 -83 71 -17 3 -40 -1 -62 -14z m-32 -104 c-9 -10
-25 -37 -37 -60 -26 -53 -47 -67 -24 -16 24 53 52 93 65 93 6 0 4 -8 -4 -17z
m62 -273 c0 -16 -7 -20 -31 -20 -18 0 -28 4 -24 10 4 6 11 8 16 5 5 -4 12 1
15 9 9 23 24 20 24 -4z"/>
<path d="M556 808 c-42 -65 -19 -112 30 -63 31 31 34 85 4 85 -11 0 -26 -10
-34 -22z"/>
<path d="M454 795 c3 -23 12 -26 13 -5 1 11 -2 20 -7 20 -4 0 -7 -7 -6 -15z"/>
<path d="M220 764 c-12 -29 -13 -61 -3 -50 4 3 8 13 9 20 1 7 5 23 9 35 9 30
-4 26 -15 -5z"/>
<path d="M419 758 c-1 -7 -1 -23 -1 -35 1 -13 -4 -23 -11 -23 -7 0 -6 -4 3
-10 9 -6 10 -10 3 -10 -6 0 -11 -9 -10 -20 1 -11 5 -20 10 -20 5 0 7 6 4 14
-3 8 -3 17 1 21 4 4 7 12 7 18 0 7 8 11 17 9 12 -2 16 4 14 23 -2 14 2 25 8
25 15 0 -16 20 -31 20 -7 0 -14 -6 -14 -12z"/>
<path d="M200 689 c0 -5 5 -7 10 -4 6 3 10 8 10 11 0 2 -4 4 -10 4 -5 0 -10
-5 -10 -11z"/>
<path d="M193 655 c0 -8 4 -15 9 -15 4 0 8 7 8 15 0 8 -4 15 -8 15 -5 0 -9 -7
-9 -15z"/>
<path d="M503 654 c-69 -34 -142 -147 -161 -250 -17 -96 0 -195 35 -209 21 -7
29 1 15 17 -31 38 -32 208 -1 208 6 0 9 -7 6 -15 -4 -8 -2 -17 4 -20 5 -4 7
-10 4 -15 -3 -5 0 -12 6 -16 9 -5 10 1 5 22 -10 37 -16 104 -10 104 2 0 18
-15 34 -32 27 -30 33 -21 11 17 -16 29 -16 72 0 103 14 25 28 24 126 -8 l52
-17 -20 51 c-18 49 -41 76 -63 76 -6 0 -25 -7 -43 -16z"/>
<path d="M390 610 c0 -5 5 -10 10 -10 6 0 10 5 10 10 0 6 -4 10 -10 10 -5 0
-10 -4 -10 -10z"/>
<path d="M595 475 c-16 -33 -31 -67 -32 -75 0 -8 -4 -31 -8 -52 -7 -44 8 -58
29 -26 23 36 48 134 44 175 l-3 38 -30 -60z"/>
<path d="M407 328 c4 -7 8 -15 8 -18 3 -19 49 -110 56 -110 13 0 11 6 -13 53
-23 44 -25 48 -27 72 0 8 -8 15 -17 15 -10 0 -12 -4 -7 -12z"/>
</g>
</svg>
